<svg xmlns="http://www.w3.org/2000/svg" viewBox="0 0 24 24" width="24" height="24" fill="black">
  <path d="M0 0h24v24H0z" fill="none"/>
  <path d="M19.14 12.94c.04-.3.06-.61.06-.94s-.02-.64-.06-.94l2.03-1.58c.18-.14.23-.39.12-.59l-1.92-3.32c-.11-.2-.36-.28-.57-.22l-2.39.96c-.5-.38-1.04-.7-1.63-.94L14.5 2.5c-.05-.22-.25-.38-.48-.38h-4c-.23 0-.43.16-.48.38l-.38 2.46c-.59.24-1.13.56-1.63.94l-2.39-.96c-.21-.06-.46.02-.57.22l-1.92 3.32c-.11.2-.06.45.12.59l2.03 1.58c-.04.3-.06.61-.06.94s.02.64.06.94l-2.03 1.58c-.18.14-.23.39-.12.59l1.92 3.32c.11.2.36.28.57.22l2.39-.96c.5.38 1.04.7 1.63.94l.38 2.46c.05.22.25.38.48.38h4c.23 0 .43-.16.48-.38l.38-2.46c.59-.24 1.13-.56 1.63-.94l2.39.96c.21.06.46-.02.57-.22l1.92-3.32c.11-.2.06-.45-.12-.59l-2.03-1.58zM12 15.5c-1.93 0-3.5-1.57-3.5-3.5s1.57-3.5 3.5-3.5 3.5 1.57 3.5 3.5-1.57 3.5-3.5 3.5z"/>
</svg>